<svg xmlns="http://www.w3.org/2000/svg" xmlns:xlink="http://www.w3.org/1999/xlink" viewBox="0 0 52.39 52.39"><defs><style>.cls-1{fill:none;}.cls-2{fill:url(#linear-gradient);}.cls-3{fill:url(#linear-gradient-2);}</style><linearGradient id="linear-gradient" x1="5.8" y1="32" x2="58.2" y2="32" gradientUnits="userSpaceOnUse"><stop offset="0" stop-color="#cce0f4"/><stop offset="0" stop-color="#c3daf0"/><stop offset="0" stop-color="#a9c8e5"/><stop offset="0" stop-color="#80acd3"/><stop offset="0" stop-color="#4785ba"/><stop offset="0" stop-color="#3c7eb5"/><stop offset="0.06" stop-color="#367eae" stop-opacity="0.97"/><stop offset="0.16" stop-color="#257e9c" stop-opacity="0.89"/><stop offset="0.29" stop-color="#0b7f7f" stop-opacity="0.75"/><stop offset="0.34" stop-color="#007f73" stop-opacity="0.7"/><stop offset="0.71" stop-color="#0075be"/><stop offset="0.91" stop-color="#876de6" stop-opacity="0.6"/></linearGradient><linearGradient id="linear-gradient-2" x1="20.63" y1="32.06" x2="42.17" y2="32.06" gradientUnits="userSpaceOnUse"><stop offset="0" stop-color="#cce0f4"/><stop offset="0.03" stop-color="#c3dcf2"/><stop offset="0.09" stop-color="#a9d2ee"/><stop offset="0.16" stop-color="#80c2e7"/><stop offset="0.24" stop-color="#47acde"/><stop offset="0.3" stop-color="#1e9cd7"/><stop offset="0.64" stop-color="#0075be"/><stop offset="0.91" stop-color="#876de6" stop-opacity="0.6"/></linearGradient></defs><g id="Layer_2" data-name="Layer 2"><path class="cls-1" d="M20.63,33.58,36.41,17.09A15.32,15.32,0,0,0,32,16.44a15.56,15.56,0,0,0-7.32,29.29l4.44-12.15Z" transform="translate(-5.8 -5.8)"/><path class="cls-1" d="M39.34,18.29,34.13,31.62h8L28.09,47a15.3,15.3,0,0,0,3.91.52,15.55,15.55,0,0,0,7.34-29.27Z" transform="translate(-5.8 -5.8)"/><path class="cls-2" d="M53.58,32.18l4.62-1.95c-.4-2.47-.34-2.13-.73-4.6l-5-.44c-.75-1.71-.93-2.11-1.69-3.82l3-4c-1.57-1.93-1.35-1.67-2.92-3.61l-4.53,2.12L43,13.4l.61-5L39.23,6.76l-2.89,4.11-4.16-.45L30.23,5.8l-4.6.73-.44,5-3.82,1.69-4-3-3.61,2.92,2.12,4.53c-1.11,1.52-1.37,1.87-2.47,3.39l-5-.61c-.89,2.32-.77,2-1.67,4.33l4.11,2.89c-.21,1.86-.25,2.29-.45,4.16l-4.62,2c.4,2.47.34,2.13.73,4.6l5,.44c.75,1.71.93,2.11,1.69,3.82l-3,4c1.57,1.93,1.35,1.67,2.92,3.61l4.53-2.12,3.39,2.47-.61,5,4.33,1.67,2.89-4.11,4.16.45,2,4.62,4.6-.74.44-5,3.82-1.69,4,3,3.61-2.92-2.12-4.53c1.11-1.52,1.37-1.87,2.47-3.39l5,.61c.89-2.32.77-2,1.67-4.33l-4.11-2.89C53.34,34.48,53.38,34.05,53.58,32.18ZM32,47.56a16.23,16.23,0,0,1-7.32-1.83A15.56,15.56,0,0,1,32,16.44a15.32,15.32,0,0,1,4.41.65,15,15,0,0,1,2.93,1.2A15.55,15.55,0,0,1,32,47.56Z" transform="translate(-5.8 -5.8)"/><path class="cls-3" d="M34.13,31.62l5.21-13.33a15,15,0,0,0-2.93-1.2L20.63,33.58h8.49L24.68,45.73A15.43,15.43,0,0,0,28.09,47L42.17,31.62Z" transform="translate(-5.8 -5.8)"/></g></svg>